<svg xmlns="http://www.w3.org/2000/svg" width="218" height="327" viewBox="0 0 218 327"><rect width="100%" height="100%" fill="#DDDDDD"/><path fill="#999999" d="M57.87 127.81v57.12H47.2v-57.12zm20.97 57.12h-9.76V144.4h5.97q1.89 0 2.49 1.78l.63 3q1.07-1.18 2.23-2.17 1.17-.99 2.49-1.7t2.84-1.12q1.52-.42 3.34-.42 3.83 0 6.3 2.07 2.47 2.08 3.69 5.51.95-2.01 2.37-3.45 1.43-1.44 3.12-2.35 1.7-.91 3.62-1.34 1.91-.44 3.85-.44 3.36 0 5.96 1.03 2.61 1.03 4.39 3t2.7 4.82q.93 2.84.93 6.52v25.79h-9.75v-25.79q0-3.87-1.7-5.83t-4.98-1.96q-1.5 0-2.78.52-1.29.51-2.26 1.48-.96.97-1.52 2.43-.55 1.46-.55 3.36v25.79h-9.79v-25.79q0-4.07-1.64-5.93t-4.8-1.86q-2.14 0-3.97 1.05-1.84 1.05-3.42 2.87zm71.22-21.25q1.82 0 3.16-.49 1.34-.5 2.23-1.37t1.34-2.09q.46-1.23.46-2.69 0-3-1.8-4.76-1.8-1.75-5.39-1.75-3.6 0-5.39 1.75-1.8 1.76-1.8 4.76 0 1.43.45 2.65.46 1.22 1.35 2.11t2.25 1.39q1.36.49 3.14.49m11.02 23.07q0-1.19-.71-1.94t-1.94-1.16q-1.22-.42-2.86-.62-1.64-.19-3.48-.29-1.83-.1-3.79-.18-1.95-.08-3.81-.32-1.62.91-2.63 2.14-1.01 1.22-1.01 2.84 0 1.07.54 2 .53.92 1.7 1.6 1.16.67 3.02 1.04 1.85.38 4.54.38 2.73 0 4.7-.42 1.98-.41 3.26-1.14t1.88-1.74q.59-1.01.59-2.19m-1.94-40.96h11.66v3.63q0 1.74-2.1 2.13l-3.63.67q.83 2.1.83 4.59 0 3-1.21 5.43-1.2 2.43-3.33 4.12-2.14 1.7-5.04 2.63t-6.26.93q-1.19 0-2.29-.12-1.11-.12-2.18-.31-1.89 1.14-1.89 2.56 0 1.23 1.12 1.8 1.13.57 2.99.81 1.85.24 4.22.3t4.86.25q2.49.2 4.86.69 2.37.5 4.23 1.56 1.85 1.07 2.98 2.91 1.12 1.83 1.12 4.72 0 2.68-1.32 5.21t-3.83 4.51q-2.51 1.97-6.16 3.17-3.66 1.21-8.32 1.21-4.58 0-7.98-.89-3.39-.89-5.64-2.37-2.26-1.48-3.36-3.42-1.11-1.93-1.11-4.02 0-2.85 1.72-4.76 1.72-1.92 4.72-3.07-1.62-.83-2.57-2.21-.94-1.38-.94-3.63 0-.91.33-1.88.34-.97.99-1.91.65-.95 1.64-1.8t2.33-1.52q-3.08-1.66-4.84-4.43-1.76-2.76-1.76-6.47 0-3.01 1.21-5.44 1.2-2.42 3.35-4.14 2.16-1.72 5.1-2.63t6.42-.91q2.61 0 4.9.54 2.29.53 4.18 1.56"/></svg>